<svg width="181" height="35" viewBox="0 0 181 35" fill="none" xmlns="http://www.w3.org/2000/svg">
<mask id="path-1-inside-1_186_5" fill="white">
<path d="M8.54933 27.2825C10.9403 27.2825 12.9211 26.7575 14.4902 25.7075C16.0594 24.656 16.8447 23.1277 16.8447 21.1225C16.7235 18.4173 14.7077 16.3888 10.7958 15.0369L8.69384 14.1663C8.2355 14.0204 7.90853 13.8775 7.71585 13.7317C7.62681 13.6715 7.5539 13.5905 7.50351 13.4957C7.45312 13.4008 7.4268 13.2951 7.42684 13.1877C7.42684 12.584 7.82533 12.2835 8.62231 12.2835C9.61198 12.2835 10.3477 12.7896 10.8308 13.8046L16.2287 12.2821C14.9252 9.04458 12.4131 7.42729 8.69384 7.42729C6.47221 7.42729 4.62426 8.00771 3.15144 9.16708C1.67863 10.325 0.941492 11.8358 0.941492 13.6938C0.941492 14.2742 1.02615 14.8108 1.19548 15.3067C1.3648 15.8025 1.61878 16.2371 1.95597 16.6104C2.29461 16.9852 2.62012 17.3104 2.93395 17.589C3.24778 17.866 3.64627 18.1271 4.13089 18.3677C4.61258 18.6098 4.98042 18.7848 5.2344 18.8927C5.48839 19.0021 5.83287 19.129 6.2664 19.2733L6.88238 19.4921L9.0573 20.2883C9.58716 20.4823 9.9331 20.6442 10.0893 20.7769C10.1656 20.8409 10.2263 20.9214 10.2668 21.0124C10.3072 21.1034 10.3264 21.2024 10.3228 21.3019C10.3228 21.9304 9.73313 22.2454 8.54933 22.2454C6.81085 22.2454 5.77156 21.4725 5.43438 19.9267L0 21.159C0.675831 25.2423 3.52658 27.2825 8.54933 27.2825ZM25.5341 27.2825C27.9251 27.2825 29.6869 26.3638 30.8225 24.5292V26.8844H38.2844V7.82542H30.8225V18.2613C30.8225 20.4108 30.0854 21.4842 28.6126 21.4842C27.115 21.4842 26.3662 20.4108 26.3662 18.2613V7.82542H18.9043V18.986C18.9043 24.5175 21.1142 27.2825 25.5341 27.2825ZM49.0393 26.8844V16.45C49.0393 14.299 49.775 13.2242 51.2478 13.2242C52.7454 13.2242 53.4957 14.299 53.4957 16.45V26.8844H60.9561V15.7252C60.9561 10.1938 58.7476 7.42729 54.3277 7.42729C51.9368 7.42729 50.1735 8.34604 49.0393 10.1806V7.82542H41.576V26.8844H49.0393ZM71.4935 26.8844V16.45C71.4935 14.299 72.2292 13.2242 73.7035 13.2242C75.1997 13.2242 75.9485 14.299 75.9485 16.45V26.8844H83.4118V15.7252C83.4118 10.1938 81.2019 7.42729 76.7819 7.42729C74.391 7.42729 72.6277 8.34604 71.4935 10.1806V7.82542H64.0302V26.8844H71.4935ZM94.8177 35L106.917 7.82542H99.1267L95.4308 17.5729L92.1348 7.82542H83.984L91.9173 25.0367L87.4989 35H94.8177ZM114.772 27.2825C117.162 27.2825 119.143 26.7575 120.712 25.7075C122.283 24.656 123.068 23.1277 123.068 21.1225C122.947 18.4173 120.93 16.3888 117.018 15.0369L114.916 14.1663C114.458 14.0204 114.132 13.8775 113.938 13.7317C113.849 13.6715 113.776 13.5905 113.726 13.4957C113.675 13.4008 113.649 13.2951 113.649 13.1877C113.649 12.584 114.048 12.2835 114.844 12.2835C115.834 12.2835 116.571 12.7896 117.054 13.8046L122.452 12.2821C121.147 9.04458 118.637 7.42729 114.917 7.42729C112.696 7.42729 110.848 8.00771 109.375 9.16708C107.901 10.3265 107.165 11.8358 107.165 13.6952C107.165 14.2756 107.25 14.8123 107.418 15.3081C107.587 15.804 107.841 16.2385 108.18 16.6119C108.517 16.9867 108.844 17.3119 109.158 17.5904C109.471 17.8675 109.87 18.1285 110.353 18.3692C110.835 18.6113 111.204 18.7863 111.458 18.8942C111.711 19.0035 112.057 19.1304 112.49 19.2748L113.106 19.4935L115.279 20.2898C115.811 20.4838 116.155 20.6456 116.311 20.7783C116.388 20.8422 116.449 20.9227 116.49 21.0137C116.53 21.1047 116.55 21.2037 116.546 21.3033C116.546 21.9319 115.955 22.2469 114.772 22.2469C113.034 22.2469 111.995 21.474 111.657 19.9281L106.222 21.159C106.899 25.2423 109.749 27.2825 114.772 27.2825ZM129.076 6.66604C130.405 6.66604 131.431 6.3525 132.156 5.72396C132.879 5.09688 133.242 4.29917 133.242 3.33229C133.242 2.34354 132.892 1.53854 132.191 0.924583C131.491 0.30625 130.453 0 129.076 0C127.7 0 126.661 0.307708 125.96 0.924583C125.259 1.54 124.909 2.34354 124.909 3.33375C124.909 4.29917 125.272 5.09688 125.996 5.72542C126.722 6.3525 127.748 6.66604 129.076 6.66604ZM132.807 26.8844V7.82542H125.342V26.8844H132.807ZM144.105 27.2825C146.641 27.2825 148.451 26.3638 149.538 24.5292V26.8844H157V0.688333H149.538V10.2171C148.451 8.35771 146.641 7.42729 144.104 7.42729C141.545 7.42729 139.412 8.36354 137.71 10.236C136.008 12.1071 135.156 14.4798 135.156 17.3556C135.156 20.2285 136.008 22.6027 137.71 24.4752C139.412 26.3463 141.546 27.2825 144.105 27.2825ZM146.134 21.595C145.07 21.595 144.219 21.1954 143.58 20.3992C142.939 19.6015 142.619 18.5865 142.619 17.3556C142.619 16.1233 142.933 15.1098 143.561 14.3121C144.213 13.5144 145.07 13.1163 146.133 13.1163C147.195 13.1163 148.046 13.5144 148.687 14.3121C149.326 15.1083 149.646 16.1233 149.646 17.3556C149.646 18.5865 149.326 19.6015 148.687 20.3992C148.046 21.1954 147.197 21.595 146.134 21.595ZM170.508 27.2825C174.299 27.2825 177.257 26.1829 179.383 23.9867L176.303 19.8552C174.782 21.0875 173.067 21.7029 171.159 21.7029C169.711 21.7029 168.533 21.3763 167.626 20.7258C166.721 20.0725 166.269 19.444 166.269 18.8402H180.288C180.409 18.4056 180.469 17.8383 180.469 17.1383C180.469 14.1429 179.485 11.776 177.517 10.0363C175.548 8.29646 173.032 7.42729 169.963 7.42729C166.679 7.42729 164.084 8.40583 162.176 10.3629C160.268 12.3185 159.314 14.6738 159.314 17.4271C159.314 20.2533 160.321 22.6027 162.338 24.4752C164.355 26.3463 167.078 27.2825 170.508 27.2825ZM173.731 15.3985H166.269C166.317 14.5046 166.704 13.8235 167.428 13.351C168.152 12.88 169.01 12.6452 170 12.6452C170.99 12.6452 171.848 12.8858 172.572 13.37C173.297 13.8527 173.683 14.5294 173.731 15.3985Z"/>
</mask>
<path d="M8.54933 27.2825C10.9403 27.2825 12.9211 26.7575 14.4902 25.7075C16.0594 24.656 16.8447 23.1277 16.8447 21.1225C16.7235 18.4173 14.7077 16.3888 10.7958 15.0369L8.69384 14.1663C8.2355 14.0204 7.90853 13.8775 7.71585 13.7317C7.62681 13.6715 7.5539 13.5905 7.50351 13.4957C7.45312 13.4008 7.4268 13.2951 7.42684 13.1877C7.42684 12.584 7.82533 12.2835 8.62231 12.2835C9.61198 12.2835 10.3477 12.7896 10.8308 13.8046L16.2287 12.2821C14.9252 9.04458 12.4131 7.42729 8.69384 7.42729C6.47221 7.42729 4.62426 8.00771 3.15144 9.16708C1.67863 10.325 0.941492 11.8358 0.941492 13.6938C0.941492 14.2742 1.02615 14.8108 1.19548 15.3067C1.3648 15.8025 1.61878 16.2371 1.95597 16.6104C2.29461 16.9852 2.62012 17.3104 2.93395 17.589C3.24778 17.866 3.64627 18.1271 4.13089 18.3677C4.61258 18.6098 4.98042 18.7848 5.2344 18.8927C5.48839 19.0021 5.83287 19.129 6.2664 19.2733L6.88238 19.4921L9.0573 20.2883C9.58716 20.4823 9.9331 20.6442 10.0893 20.7769C10.1656 20.8409 10.2263 20.9214 10.2668 21.0124C10.3072 21.1034 10.3264 21.2024 10.3228 21.3019C10.3228 21.9304 9.73313 22.2454 8.54933 22.2454C6.81085 22.2454 5.77156 21.4725 5.43438 19.9267L0 21.159C0.675831 25.2423 3.52658 27.2825 8.54933 27.2825ZM25.5341 27.2825C27.9251 27.2825 29.6869 26.3638 30.8225 24.5292V26.8844H38.2844V7.82542H30.8225V18.2613C30.8225 20.4108 30.0854 21.4842 28.6126 21.4842C27.115 21.4842 26.3662 20.4108 26.3662 18.2613V7.82542H18.9043V18.986C18.9043 24.5175 21.1142 27.2825 25.5341 27.2825ZM49.0393 26.8844V16.45C49.0393 14.299 49.775 13.2242 51.2478 13.2242C52.7454 13.2242 53.4957 14.299 53.4957 16.45V26.8844H60.9561V15.7252C60.9561 10.1938 58.7476 7.42729 54.3277 7.42729C51.9368 7.42729 50.1735 8.34604 49.0393 10.1806V7.82542H41.576V26.8844H49.0393ZM71.4935 26.8844V16.45C71.4935 14.299 72.2292 13.2242 73.7035 13.2242C75.1997 13.2242 75.9485 14.299 75.9485 16.45V26.8844H83.4118V15.7252C83.4118 10.1938 81.2019 7.42729 76.7819 7.42729C74.391 7.42729 72.6277 8.34604 71.4935 10.1806V7.82542H64.0302V26.8844H71.4935ZM94.8177 35L106.917 7.82542H99.1267L95.4308 17.5729L92.1348 7.82542H83.984L91.9173 25.0367L87.4989 35H94.8177ZM114.772 27.2825C117.162 27.2825 119.143 26.7575 120.712 25.7075C122.283 24.656 123.068 23.1277 123.068 21.1225C122.947 18.4173 120.93 16.3888 117.018 15.0369L114.916 14.1663C114.458 14.0204 114.132 13.8775 113.938 13.7317C113.849 13.6715 113.776 13.5905 113.726 13.4957C113.675 13.4008 113.649 13.2951 113.649 13.1877C113.649 12.584 114.048 12.2835 114.844 12.2835C115.834 12.2835 116.571 12.7896 117.054 13.8046L122.452 12.2821C121.147 9.04458 118.637 7.42729 114.917 7.42729C112.696 7.42729 110.848 8.00771 109.375 9.16708C107.901 10.3265 107.165 11.8358 107.165 13.6952C107.165 14.2756 107.25 14.8123 107.418 15.3081C107.587 15.804 107.841 16.2385 108.18 16.6119C108.517 16.9867 108.844 17.3119 109.158 17.5904C109.471 17.8675 109.87 18.1285 110.353 18.3692C110.835 18.6113 111.204 18.7863 111.458 18.8942C111.711 19.0035 112.057 19.1304 112.49 19.2748L113.106 19.4935L115.279 20.2898C115.811 20.4838 116.155 20.6456 116.311 20.7783C116.388 20.8422 116.449 20.9227 116.49 21.0137C116.53 21.1047 116.55 21.2037 116.546 21.3033C116.546 21.9319 115.955 22.2469 114.772 22.2469C113.034 22.2469 111.995 21.474 111.657 19.9281L106.222 21.159C106.899 25.2423 109.749 27.2825 114.772 27.2825ZM129.076 6.66604C130.405 6.66604 131.431 6.3525 132.156 5.72396C132.879 5.09688 133.242 4.29917 133.242 3.33229C133.242 2.34354 132.892 1.53854 132.191 0.924583C131.491 0.30625 130.453 0 129.076 0C127.7 0 126.661 0.307708 125.96 0.924583C125.259 1.54 124.909 2.34354 124.909 3.33375C124.909 4.29917 125.272 5.09688 125.996 5.72542C126.722 6.3525 127.748 6.66604 129.076 6.66604ZM132.807 26.8844V7.82542H125.342V26.8844H132.807ZM144.105 27.2825C146.641 27.2825 148.451 26.3638 149.538 24.5292V26.8844H157V0.688333H149.538V10.2171C148.451 8.35771 146.641 7.42729 144.104 7.42729C141.545 7.42729 139.412 8.36354 137.71 10.236C136.008 12.1071 135.156 14.4798 135.156 17.3556C135.156 20.2285 136.008 22.6027 137.71 24.4752C139.412 26.3463 141.546 27.2825 144.105 27.2825ZM146.134 21.595C145.07 21.595 144.219 21.1954 143.58 20.3992C142.939 19.6015 142.619 18.5865 142.619 17.3556C142.619 16.1233 142.933 15.1098 143.561 14.3121C144.213 13.5144 145.07 13.1163 146.133 13.1163C147.195 13.1163 148.046 13.5144 148.687 14.3121C149.326 15.1083 149.646 16.1233 149.646 17.3556C149.646 18.5865 149.326 19.6015 148.687 20.3992C148.046 21.1954 147.197 21.595 146.134 21.595ZM170.508 27.2825C174.299 27.2825 177.257 26.1829 179.383 23.9867L176.303 19.8552C174.782 21.0875 173.067 21.7029 171.159 21.7029C169.711 21.7029 168.533 21.3763 167.626 20.7258C166.721 20.0725 166.269 19.444 166.269 18.8402H180.288C180.409 18.4056 180.469 17.8383 180.469 17.1383C180.469 14.1429 179.485 11.776 177.517 10.0363C175.548 8.29646 173.032 7.42729 169.963 7.42729C166.679 7.42729 164.084 8.40583 162.176 10.3629C160.268 12.3185 159.314 14.6738 159.314 17.4271C159.314 20.2533 160.321 22.6027 162.338 24.4752C164.355 26.3463 167.078 27.2825 170.508 27.2825ZM173.731 15.3985H166.269C166.317 14.5046 166.704 13.8235 167.428 13.351C168.152 12.88 169.01 12.6452 170 12.6452C170.99 12.6452 171.848 12.8858 172.572 13.37C173.297 13.8527 173.683 14.5294 173.731 15.3985Z" fill="#2C7466" stroke="#2C7466" stroke-width="2" mask="url(#path-1-inside-1_186_5)"/>
</svg>
