<svg width="335" height="65" viewBox="0 0 335 65" fill="none" xmlns="http://www.w3.org/2000/svg">
<mask id="path-1-inside-1_186_6" fill="white">
<path d="M15.8699 50.6675C20.3082 50.6675 23.9851 49.6925 26.8979 47.7425C29.8107 45.7898 31.2684 42.9515 31.2684 39.2275C31.0435 34.2035 27.3016 30.4362 20.04 27.9256L16.1382 26.3087C15.2874 26.0379 14.6804 25.7725 14.3228 25.5017C14.1575 25.39 14.0221 25.2395 13.9286 25.0634C13.8351 24.8872 13.7862 24.6909 13.7863 24.4915C13.7863 23.3702 14.526 22.8123 16.0054 22.8123C17.8425 22.8123 19.2081 23.7521 20.105 25.6371L30.125 22.8096C27.7053 16.7971 23.0422 13.7935 16.1382 13.7935C12.0142 13.7935 8.58391 14.8715 5.84995 17.0246C3.116 19.175 1.74767 21.9808 1.74767 25.4313C1.74767 26.5092 1.90483 27.5058 2.21914 28.4267C2.53344 29.3475 3.00491 30.1546 3.63082 30.8479C4.25944 31.544 4.86367 32.1479 5.44623 32.6652C6.02879 33.1798 6.7685 33.6646 7.66807 34.1115C8.56223 34.561 9.24504 34.886 9.71651 35.0865C10.188 35.2896 10.8274 35.5252 11.6322 35.7933L12.7756 36.1996L16.8129 37.6783C17.7964 38.0385 18.4386 38.3392 18.7285 38.5856C18.8702 38.7045 18.9829 38.8541 19.058 39.0231C19.1331 39.192 19.1687 39.3759 19.1621 39.5606C19.1621 40.7279 18.0674 41.3129 15.8699 41.3129C12.6428 41.3129 10.7136 39.8775 10.0877 37.0067L0 39.2952C1.25453 46.8785 6.54631 50.6675 15.8699 50.6675ZM47.3985 50.6675C51.8367 50.6675 55.1072 48.9612 57.2152 45.5542V49.9281H71.0665V14.5329H57.2152V33.9137C57.2152 37.9058 55.8469 39.8992 53.1129 39.8992C50.3329 39.8992 48.9429 37.9058 48.9429 33.9137V14.5329H35.0916V35.2598C35.0916 45.5325 39.1939 50.6675 47.3985 50.6675ZM91.0306 49.9281V30.55C91.0306 26.5552 92.3962 24.5592 95.1302 24.5592C97.9102 24.5592 99.3029 26.5552 99.3029 30.55V49.9281H113.152V29.204C113.152 18.9312 109.052 13.7935 100.847 13.7935C96.4091 13.7935 93.1359 15.4998 91.0306 18.9069V14.5329H77.1766V49.9281H91.0306ZM132.712 49.9281V30.55C132.712 26.5552 134.077 24.5592 136.814 24.5592C139.591 24.5592 140.981 26.5552 140.981 30.55V49.9281H154.835V29.204C154.835 18.9312 150.733 13.7935 142.529 13.7935C138.09 13.7935 134.817 15.4998 132.712 18.9069V14.5329H118.858V49.9281H132.712ZM176.008 65L198.468 14.5329H184.007L177.146 32.6354L171.028 14.5329H155.898L170.624 46.4967L162.422 65H176.008ZM213.048 50.6675C217.486 50.6675 221.163 49.6925 224.076 47.7425C226.991 45.7898 228.449 42.9515 228.449 39.2275C228.224 34.2035 224.479 30.4362 217.218 27.9256L213.316 26.3087C212.465 26.0379 211.861 25.7725 211.501 25.5017C211.335 25.39 211.2 25.2395 211.106 25.0634C211.013 24.8872 210.964 24.6909 210.964 24.4915C210.964 23.3702 211.704 22.8123 213.183 22.8123C215.02 22.8123 216.389 23.7521 217.286 25.6371L227.306 22.8096C224.883 16.7971 220.223 13.7935 213.319 13.7935C209.195 13.7935 205.765 14.8715 203.031 17.0246C200.294 19.1777 198.928 21.9808 198.928 25.434C198.928 26.5119 199.085 27.5085 199.397 28.4294C199.711 29.3502 200.183 30.1573 200.811 30.8506C201.437 31.5467 202.044 32.1506 202.627 32.6679C203.209 33.1825 203.949 33.6673 204.846 34.1142C205.74 34.5637 206.426 34.8887 206.897 35.0892C207.366 35.2923 208.008 35.5279 208.813 35.796L209.956 36.2023L213.991 37.681C214.977 38.0412 215.616 38.3419 215.906 38.5883C216.049 38.7069 216.162 38.8564 216.237 39.0254C216.313 39.1944 216.349 39.3783 216.343 39.5633C216.343 40.7306 215.245 41.3156 213.048 41.3156C209.823 41.3156 207.894 39.8802 207.266 37.0094L197.178 39.2952C198.435 46.8785 203.724 50.6675 213.048 50.6675ZM239.602 12.3798C242.067 12.3798 243.972 11.7975 245.319 10.6302C246.66 9.46562 247.335 7.98417 247.335 6.18854C247.335 4.35229 246.684 2.85729 245.384 1.71708C244.083 0.56875 242.157 0 239.602 0C237.046 0 235.117 0.571458 233.817 1.71708C232.516 2.86 231.866 4.35229 231.866 6.19125C231.866 7.98417 232.54 9.46563 233.884 10.6329C235.231 11.7975 237.136 12.3798 239.602 12.3798ZM246.527 49.9281V14.5329H232.671V49.9281H246.527ZM267.499 50.6675C272.206 50.6675 275.566 48.9612 277.584 45.5542V49.9281H291.436V1.27833H277.584V18.9746C275.566 15.5215 272.206 13.7935 267.497 13.7935C262.747 13.7935 258.788 15.5323 255.629 19.0098C252.469 22.4846 250.887 26.891 250.887 32.2319C250.887 37.5673 252.469 41.9765 255.629 45.454C258.788 48.9288 262.749 50.6675 267.499 50.6675ZM271.266 40.105C269.29 40.105 267.711 39.3629 266.524 37.8842C265.334 36.4027 264.741 34.5177 264.741 32.2319C264.741 29.9433 265.323 28.061 266.489 26.5796C267.7 25.0981 269.29 24.3588 271.263 24.3588C273.235 24.3588 274.815 25.0981 276.005 26.5796C277.191 28.0583 277.785 29.9433 277.785 32.2319C277.785 34.5177 277.191 36.4027 276.005 37.8842C274.815 39.3629 273.238 40.105 271.266 40.105ZM316.51 50.6675C323.547 50.6675 329.039 48.6254 332.984 44.5467L327.267 36.874C324.444 39.1625 321.26 40.3054 317.718 40.3054C315.031 40.3054 312.844 39.6987 311.161 38.4908C309.481 37.2775 308.641 36.1102 308.641 34.989H334.664C334.889 34.1819 335 33.1283 335 31.8283C335 26.2654 333.174 21.8698 329.521 18.6387C325.866 15.4077 321.195 13.7935 315.499 13.7935C309.403 13.7935 304.585 15.6108 301.044 19.2454C297.502 22.8773 295.73 27.2512 295.73 32.3646C295.73 37.6133 297.6 41.9765 301.344 45.454C305.089 48.9288 310.142 50.6675 316.51 50.6675ZM322.493 28.5973H308.641C308.731 26.9371 309.449 25.6723 310.793 24.7948C312.137 23.92 313.73 23.484 315.567 23.484C317.404 23.484 318.997 23.9308 320.341 24.83C321.688 25.7265 322.403 26.9831 322.493 28.5973Z"/>
</mask>
<path d="M15.8699 50.6675C20.3082 50.6675 23.9851 49.6925 26.8979 47.7425C29.8107 45.7898 31.2684 42.9515 31.2684 39.2275C31.0435 34.2035 27.3016 30.4362 20.04 27.9256L16.1382 26.3087C15.2874 26.0379 14.6804 25.7725 14.3228 25.5017C14.1575 25.39 14.0221 25.2395 13.9286 25.0634C13.8351 24.8872 13.7862 24.6909 13.7863 24.4915C13.7863 23.3702 14.526 22.8123 16.0054 22.8123C17.8425 22.8123 19.2081 23.7521 20.105 25.6371L30.125 22.8096C27.7053 16.7971 23.0422 13.7935 16.1382 13.7935C12.0142 13.7935 8.58391 14.8715 5.84995 17.0246C3.116 19.175 1.74767 21.9808 1.74767 25.4313C1.74767 26.5092 1.90483 27.5058 2.21914 28.4267C2.53344 29.3475 3.00491 30.1546 3.63082 30.8479C4.25944 31.544 4.86367 32.1479 5.44623 32.6652C6.02879 33.1798 6.7685 33.6646 7.66807 34.1115C8.56223 34.561 9.24504 34.886 9.71651 35.0865C10.188 35.2896 10.8274 35.5252 11.6322 35.7933L12.7756 36.1996L16.8129 37.6783C17.7964 38.0385 18.4386 38.3392 18.7285 38.5856C18.8702 38.7045 18.9829 38.8541 19.058 39.0231C19.1331 39.192 19.1687 39.3759 19.1621 39.5606C19.1621 40.7279 18.0674 41.3129 15.8699 41.3129C12.6428 41.3129 10.7136 39.8775 10.0877 37.0067L0 39.2952C1.25453 46.8785 6.54631 50.6675 15.8699 50.6675ZM47.3985 50.6675C51.8367 50.6675 55.1072 48.9612 57.2152 45.5542V49.9281H71.0665V14.5329H57.2152V33.9137C57.2152 37.9058 55.8469 39.8992 53.1129 39.8992C50.3329 39.8992 48.9429 37.9058 48.9429 33.9137V14.5329H35.0916V35.2598C35.0916 45.5325 39.1939 50.6675 47.3985 50.6675ZM91.0306 49.9281V30.55C91.0306 26.5552 92.3962 24.5592 95.1302 24.5592C97.9102 24.5592 99.3029 26.5552 99.3029 30.55V49.9281H113.152V29.204C113.152 18.9312 109.052 13.7935 100.847 13.7935C96.4091 13.7935 93.1359 15.4998 91.0306 18.9069V14.5329H77.1766V49.9281H91.0306ZM132.712 49.9281V30.55C132.712 26.5552 134.077 24.5592 136.814 24.5592C139.591 24.5592 140.981 26.5552 140.981 30.55V49.9281H154.835V29.204C154.835 18.9312 150.733 13.7935 142.529 13.7935C138.09 13.7935 134.817 15.4998 132.712 18.9069V14.5329H118.858V49.9281H132.712ZM176.008 65L198.468 14.5329H184.007L177.146 32.6354L171.028 14.5329H155.898L170.624 46.4967L162.422 65H176.008ZM213.048 50.6675C217.486 50.6675 221.163 49.6925 224.076 47.7425C226.991 45.7898 228.449 42.9515 228.449 39.2275C228.224 34.2035 224.479 30.4362 217.218 27.9256L213.316 26.3087C212.465 26.0379 211.861 25.7725 211.501 25.5017C211.335 25.39 211.2 25.2395 211.106 25.0634C211.013 24.8872 210.964 24.6909 210.964 24.4915C210.964 23.3702 211.704 22.8123 213.183 22.8123C215.02 22.8123 216.389 23.7521 217.286 25.6371L227.306 22.8096C224.883 16.7971 220.223 13.7935 213.319 13.7935C209.195 13.7935 205.765 14.8715 203.031 17.0246C200.294 19.1777 198.928 21.9808 198.928 25.434C198.928 26.5119 199.085 27.5085 199.397 28.4294C199.711 29.3502 200.183 30.1573 200.811 30.8506C201.437 31.5467 202.044 32.1506 202.627 32.6679C203.209 33.1825 203.949 33.6673 204.846 34.1142C205.74 34.5637 206.426 34.8887 206.897 35.0892C207.366 35.2923 208.008 35.5279 208.813 35.796L209.956 36.2023L213.991 37.681C214.977 38.0412 215.616 38.3419 215.906 38.5883C216.049 38.7069 216.162 38.8564 216.237 39.0254C216.313 39.1944 216.349 39.3783 216.343 39.5633C216.343 40.7306 215.245 41.3156 213.048 41.3156C209.823 41.3156 207.894 39.8802 207.266 37.0094L197.178 39.2952C198.435 46.8785 203.724 50.6675 213.048 50.6675ZM239.602 12.3798C242.067 12.3798 243.972 11.7975 245.319 10.6302C246.66 9.46562 247.335 7.98417 247.335 6.18854C247.335 4.35229 246.684 2.85729 245.384 1.71708C244.083 0.56875 242.157 0 239.602 0C237.046 0 235.117 0.571458 233.817 1.71708C232.516 2.86 231.866 4.35229 231.866 6.19125C231.866 7.98417 232.54 9.46563 233.884 10.6329C235.231 11.7975 237.136 12.3798 239.602 12.3798ZM246.527 49.9281V14.5329H232.671V49.9281H246.527ZM267.499 50.6675C272.206 50.6675 275.566 48.9612 277.584 45.5542V49.9281H291.436V1.27833H277.584V18.9746C275.566 15.5215 272.206 13.7935 267.497 13.7935C262.747 13.7935 258.788 15.5323 255.629 19.0098C252.469 22.4846 250.887 26.891 250.887 32.2319C250.887 37.5673 252.469 41.9765 255.629 45.454C258.788 48.9288 262.749 50.6675 267.499 50.6675ZM271.266 40.105C269.29 40.105 267.711 39.3629 266.524 37.8842C265.334 36.4027 264.741 34.5177 264.741 32.2319C264.741 29.9433 265.323 28.061 266.489 26.5796C267.7 25.0981 269.29 24.3588 271.263 24.3588C273.235 24.3588 274.815 25.0981 276.005 26.5796C277.191 28.0583 277.785 29.9433 277.785 32.2319C277.785 34.5177 277.191 36.4027 276.005 37.8842C274.815 39.3629 273.238 40.105 271.266 40.105ZM316.51 50.6675C323.547 50.6675 329.039 48.6254 332.984 44.5467L327.267 36.874C324.444 39.1625 321.26 40.3054 317.718 40.3054C315.031 40.3054 312.844 39.6987 311.161 38.4908C309.481 37.2775 308.641 36.1102 308.641 34.989H334.664C334.889 34.1819 335 33.1283 335 31.8283C335 26.2654 333.174 21.8698 329.521 18.6387C325.866 15.4077 321.195 13.7935 315.499 13.7935C309.403 13.7935 304.585 15.6108 301.044 19.2454C297.502 22.8773 295.73 27.2512 295.73 32.3646C295.73 37.6133 297.6 41.9765 301.344 45.454C305.089 48.9288 310.142 50.6675 316.51 50.6675ZM322.493 28.5973H308.641C308.731 26.9371 309.449 25.6723 310.793 24.7948C312.137 23.92 313.73 23.484 315.567 23.484C317.404 23.484 318.997 23.9308 320.341 24.83C321.688 25.7265 322.403 26.9831 322.493 28.5973Z" fill="#2C7466" stroke="#2C7466" stroke-width="2" mask="url(#path-1-inside-1_186_6)"/>
</svg>
